# xmcd CD database file
#
# Track frame offsets:
#	150
#	24872
#	36677
#	57110
#	68052
#	82320
#	99617
#	117027
#	134307
#	148607
#	161497
#
# Disc length: 2446 seconds
#
# Revision: 1
# Processed by: cddbd v1.5.2PL0 Copyright (c) Steve Scherf et al.
# Submitted via: CDex 1.70beta2
#
DISCID=96098c0b
DTITLE=The Notting Hillbillies - Missing - Presumed Having a Good Time
DYEAR=1990
DGENRE=Blues
TTITLE0=Railroad worksong
TTITLE1=Bewildered
TTITLE2=Your own sweet way
TTITLE3=Run me down
TTITLE4=One way gal
TTITLE5=Blues stay away from me
TTITLE6=Will you miss me
TTITLE7=Please baby
TTITLE8=Weapon of prayer
TTITLE9=That's where I belong
TTITLE10=Feel like going home
EXTD=YEAR: 1990
EXTT0=
EXTT1=
EXTT2=
EXTT3=
EXTT4=
EXTT5=
EXTT6=
EXTT7=
EXTT8=
EXTT9=
EXTT10=
PLAYORDER=
